<?xml version="1.0" encoding="iso-8859-1"?>
<!-- Generator: Adobe Illustrator 19.0.0, SVG Export Plug-In . SVG Version: 6.00 Build 0)  -->
<svg version="1.1" id="Capa_1" xmlns="http://www.w3.org/2000/svg" xmlns:xlink="http://www.w3.org/1999/xlink" x="0px" y="0px"
	 viewBox="0 0 512 512" style="enable-background:new 0 0 512 512;" xml:space="preserve">
<path style="fill:#8A90A7;" d="M123.984,348.164v30.562c0,2.637-2.173,4.775-4.854,4.775H70.596c-2.681,0-4.854-2.138-4.854-4.775
	v-30.562c0-2.637,2.173-4.775,4.854-4.775h48.535C121.811,343.389,123.984,345.527,123.984,348.164z M439.463,343.389h-48.535
	c-2.681,0-4.854,2.138-4.854,4.775v30.562c0,2.637,2.173,4.775,4.854,4.775h48.535c2.681,0,4.854-2.138,4.854-4.775v-30.562
	C444.316,345.527,442.143,343.389,439.463,343.389z"/>
<path style="fill:#52A5D8;" d="M459.848,147.602v105.056c0,5.275-4.346,9.551-9.707,9.551H265.707c-5.361,0-9.707-4.276-9.707-9.551
	c0,5.275-4.346,9.551-9.707,9.551H61.859c-5.361,0-9.707-4.276-9.707-9.551V147.602c0-10.549,8.692-19.101,19.414-19.101h165.02
	c10.722,0,19.414,8.552,19.414,19.101c0-10.549,8.692-19.101,19.414-19.101h165.02C451.156,128.501,459.848,137.053,459.848,147.602
	z"/>
<path style="fill:#4893C0;" d="M459.848,147.602v105.056c0,3.915-2.397,7.276-5.824,8.751v17.259H270.561v0.255H241.44v-0.255
	H56.035v-18.382c-2.354-1.743-3.883-4.506-3.883-7.627v-13.61h102.652c42.888,0,77.656-34.208,77.656-76.405v-34.143h4.125
	c10.722,0,19.414,8.552,19.414,19.101v72.345c0,10.549,8.692,19.101,19.414,19.101h83.238c42.888,0,77.656-34.208,77.656-76.405
	v-34.142h4.125C451.156,128.501,459.848,137.053,459.848,147.602z"/>
<path style="fill:#A2DAF9;" d="M504.5,219.231v124.157c0,5.275-4.346,9.551-9.707,9.551h-24.268h-14.561H56.035h-14.56H17.207
	c-5.361,0-9.707-4.276-9.707-9.551V219.231c0-5.275,4.346-9.551,9.707-9.551h38.828c5.361,0,9.707,4.276,9.707,9.551v66.376h380.516
	v-66.376c0-5.275,4.346-9.551,9.707-9.551h38.828C500.154,209.681,504.5,213.957,504.5,219.231z"/>
<path style="fill:#84C5FA;" d="M504.5,219.231v124.157c0,5.275-4.346,9.551-9.707,9.551h-21.355c5.361,0,9.707-4.276,9.707-9.551
	V219.231c0-5.275-4.346-9.551-9.707-9.551h21.355C500.154,209.681,504.5,213.957,504.5,219.231z"/>
<path style="fill:#52A5D8;" d="M459.848,271.759v28.652c0,5.275-4.346,9.551-9.707,9.551H265.707c-5.361,0-9.707-4.276-9.707-9.551
	c0,5.275-4.346,9.551-9.707,9.551H61.859c-5.361,0-9.707-4.276-9.707-9.551v-28.652c0-5.275,4.346-9.551,9.707-9.551h184.434
	c5.361,0,9.707,4.276,9.707,9.551c0-5.275,4.346-9.551,9.707-9.551h184.434C455.502,262.209,459.848,266.485,459.848,271.759z"/>
<path style="fill:#70B5E8;" d="M230.762,271.759v28.652c0,5.275-4.346,9.551-9.707,9.551H61.859c-5.361,0-9.707-4.276-9.707-9.551
	v-28.652c0-5.275,4.346-9.551,9.707-9.551h159.195C226.416,262.209,230.762,266.485,230.762,271.759z M424.902,262.209H265.707
	c-5.361,0-9.707,4.276-9.707,9.551v28.652c0,5.275,4.346,9.551,9.707,9.551h159.195c5.361,0,9.707-4.276,9.707-9.551V271.76
	C434.609,266.485,430.263,262.209,424.902,262.209z"/>
<path d="M494.793,202.181h-27.445v-54.579c0-14.668-12.073-26.601-26.914-26.601h-165.02c-7.624,0-14.512,3.155-19.414,8.206
	c-4.902-5.052-11.79-8.206-19.414-8.206H71.566c-14.841,0-26.914,11.933-26.914,26.601v54.579H17.207
	C7.719,202.181,0,209.83,0,219.231v124.157c0,9.401,7.719,17.05,17.207,17.05h38.828c0.689,0,1.365-0.052,2.032-0.13
	c0.373,0.069,0.755,0.108,1.145,0.119v18.298c0,6.769,5.542,12.275,12.354,12.275h48.535c6.812,0,12.354-5.507,12.354-12.275
	v-18.287h247.09v18.287c0,6.769,5.542,12.275,12.354,12.275h48.535c6.812,0,12.354-5.507,12.354-12.275v-18.298
	c0.39-0.011,0.772-0.05,1.145-0.119c0.668,0.078,1.344,0.13,2.032,0.13h38.828c9.488,0,17.207-7.649,17.207-17.05V219.231
	C512,209.83,504.281,202.181,494.793,202.181z M73.105,345.439c0.082-0.674,0.137-1.355,0.137-2.05v-25.928h173.051
	c3.6,0,6.942-1.105,9.707-2.985c2.765,1.88,6.107,2.985,9.707,2.985h173.051v25.927c0,0.695,0.055,1.377,0.137,2.05H73.105V345.439z
	 M71.566,136.001h165.02c6.569,0,11.914,5.204,11.914,11.601v85c0,4.142,3.357,7.5,7.5,7.5s7.5-3.358,7.5-7.5v-85
	c0-6.397,5.345-11.601,11.914-11.601h165.02c6.569,0,11.914,5.204,11.914,11.601v54.965c-7.756,1.652-13.59,8.493-13.59,16.665
	v35.478h-110.44c-4.143,0-7.5,3.358-7.5,7.5s3.357,7.5,7.5,7.5h121.823c1.217,0,2.207,0.92,2.207,2.05v28.652
	c0,1.13-0.99,2.05-2.207,2.05H265.707c-1.217,0-2.207-0.92-2.207-2.05v-28.652c0-1.13,0.99-2.05,2.207-2.05h33.732
	c4.143,0,7.5-3.358,7.5-7.5s-3.357-7.5-7.5-7.5h-33.732c-3.6,0-6.942,1.105-9.707,2.985c-2.765-1.88-6.107-2.985-9.707-2.985
	H133.206c-4.143,0-7.5,3.358-7.5,7.5s3.357,7.5,7.5,7.5h113.087c1.217,0,2.207,0.92,2.207,2.05v28.652c0,1.13-0.99,2.05-2.207,2.05
	H61.859c-1.217,0-2.207-0.92-2.207-2.05v-28.652c0-1.13,0.99-2.05,2.207-2.05h43.196c4.143,0,7.5-3.358,7.5-7.5s-3.357-7.5-7.5-7.5
	H73.242v-35.479c0-8.172-5.834-15.013-13.59-16.665v-54.965C59.652,141.205,64.997,136.001,71.566,136.001z M15,343.389V219.231
	c0-1.131,0.99-2.051,2.207-2.051h38.828c1.217,0,2.207,0.92,2.207,2.051v35.864c-7.756,1.652-13.59,8.493-13.59,16.664v28.652
	c0,8.171,5.834,15.012,13.59,16.664v26.313c0,1.13-0.99,2.05-2.207,2.05H17.207C15.99,345.439,15,344.519,15,343.389z
	 M117.455,376.001H74.213v-15.562h43.242V376.001z M394.545,376.001v-15.562h43.242v15.562H394.545z M497,343.389
	c0,1.13-0.99,2.05-2.207,2.05h-38.828c-1.217,0-2.207-0.92-2.207-2.05v-26.313c7.756-1.652,13.59-8.493,13.59-16.664V271.76
	c0-8.171-5.834-15.012-13.59-16.664v-35.865c0-1.131,0.99-2.051,2.207-2.051h38.828c1.217,0,2.207,0.92,2.207,2.051V343.389z"/>
<g>
</g>
<g>
</g>
<g>
</g>
<g>
</g>
<g>
</g>
<g>
</g>
<g>
</g>
<g>
</g>
<g>
</g>
<g>
</g>
<g>
</g>
<g>
</g>
<g>
</g>
<g>
</g>
<g>
</g>
</svg>
